<svg width="72" height="72" viewBox="0 0 72 72" fill="none" xmlns="http://www.w3.org/2000/svg">
<g clip-path="url(#clip0_5_731)">
<path d="M36 -1.57361e-06C45.5478 -1.99096e-06 54.7045 3.79284 61.4558 10.5442C68.2072 17.2955 72 26.4522 72 36C72 45.5478 68.2072 54.7045 61.4559 61.4558C54.7045 68.2072 45.5478 72 36 72C26.4522 72 17.2955 68.2072 10.5442 61.4558C3.79285 54.7045 -1.15626e-06 45.5478 -1.57361e-06 36C-1.99096e-06 26.4522 3.79284 17.2955 10.5442 10.5442C17.2955 3.79285 26.4522 -1.15626e-06 36 -1.57361e-06ZM20.25 33.75C19.6533 33.75 19.081 33.9871 18.659 34.409C18.2371 34.831 18 35.4033 18 36C18 36.5967 18.2371 37.169 18.659 37.591C19.081 38.0129 19.6533 38.25 20.25 38.25L46.3185 38.25L36.657 47.907C36.2345 48.3295 35.9972 48.9025 35.9972 49.5C35.9972 50.0975 36.2345 50.6705 36.657 51.093C37.0795 51.5155 37.6525 51.7528 38.25 51.7528C38.8475 51.7528 39.4205 51.5155 39.843 51.093L53.343 37.593C53.5525 37.384 53.7188 37.1357 53.8322 36.8623C53.9456 36.589 54.004 36.2959 54.004 36C54.004 35.704 53.9456 35.411 53.8322 35.1376C53.7188 34.8643 53.5525 34.616 53.343 34.407L39.843 20.907C39.4205 20.4845 38.8475 20.2472 38.25 20.2472C37.6525 20.2472 37.0795 20.4845 36.657 20.907C36.2345 21.3295 35.9972 21.9025 35.9972 22.5C35.9972 23.0975 36.2345 23.6705 36.657 24.093L46.3185 33.75L20.25 33.75Z" fill="#F5FBF2"/>
</g>
<defs>
<clipPath id="clip0_5_731">
<rect width="72" height="72" fill="white" transform="translate(0 72) rotate(-90)"/>
</clipPath>
</defs>
</svg>
